<svg xmlns="http://www.w3.org/2000/svg" viewBox="0 0 1200 360" width="1200" height="360" role="img"><defs><linearGradient id="bg" x1="0" y1="0" x2="1" y2="1"><stop offset="0" stop-color="#0d0d10"/><stop offset="1" stop-color="#e01327"/></linearGradient><radialGradient id="gl" cx="0.5" cy="0.35" r="0.75"><stop offset="0" stop-color="#ff5065" stop-opacity="0.35"/><stop offset="1" stop-color="#ff5065" stop-opacity="0"/></radialGradient></defs><rect width="1200" height="360" fill="url(#bg)"/><rect width="1200" height="360" fill="url(#gl)"/><circle cx="386" cy="369" r="121" fill="#ff5065" opacity="0.053"/><circle cx="871" cy="161" r="158" fill="#ff5065" opacity="0.074"/><circle cx="649" cy="152" r="46" fill="#ff5065" opacity="0.043"/><circle cx="131" cy="191" r="160" fill="#ff5065" opacity="0.056"/><circle cx="786" cy="137" r="88" fill="#ff5065" opacity="0.05"/><circle cx="141" cy="24" r="142" fill="#ff5065" opacity="0.089"/><circle cx="1089" cy="265" r="71" fill="#ff5065" opacity="0.093"/><line x1="0" y1="145" x2="1200" y2="134" stroke="#ff5065" stroke-width="1" opacity="0.05"/><line x1="0" y1="98" x2="1200" y2="89" stroke="#ff5065" stroke-width="1" opacity="0.05"/><line x1="0" y1="302" x2="1200" y2="325" stroke="#ff5065" stroke-width="1" opacity="0.05"/><rect y="50" width="1200" height="260" fill="#000000" opacity="0.20"/><text x="600" y="148" text-anchor="middle" font-family="&#39;Segoe UI&#39;,&#39;Arial&#39;,sans-serif" font-size="78" font-weight="700" fill="#ffffff" textLength="889.2" lengthAdjust="spacingAndGlyphs">CapCut Premium Full</text><text x="600" y="230.7" text-anchor="middle" font-family="&#39;Segoe UI&#39;,&#39;Arial&#39;,sans-serif" font-size="78" font-weight="700" fill="#ffffff" textLength="748.8" lengthAdjust="spacingAndGlyphs">Access + Product</text><rect x="530" y="252.7" width="140" height="4" rx="2" fill="#ff5065"/><text x="600" y="290.7" text-anchor="middle" font-family="&#39;Segoe UI&#39;,&#39;Arial&#39;,sans-serif" font-size="30" font-weight="400" fill="#ffffff" fill-opacity="0.85" textLength="1045.2" lengthAdjust="spacingAndGlyphs">Unlock, activate, patch — CapCut Premium key, full access, one .exe</text></svg>